<svg aria-hidden="true" style="position: absolute; width: 0; height: 0; overflow: hidden;" version="1.1"
    xmlns="http://www.w3.org/2000/svg" xmlns:xlink="http://www.w3.org/1999/xlink">
    <defs>
        <symbol id="logo" viewBox="0 0 24 24">
            <path stroke="#fff" stroke-linecap="round" stroke-linejoin="round" stroke-width="2"
                d="M19.82 2H4.18C2.98 2 2 2.98 2 4.18v15.64c0 1.2.98 2.18 2.18 2.18h15.64c1.2 0 2.18-.98 2.18-2.18V4.18C22 2.98 21.02 2 19.82 2ZM7 2v20M17 2v20M2 12h20M2 7h5M2 17h5M17 17h5M17 7h5" />
        </symbol>
        <symbol id="search" viewBox="0 0 12 12">
            <path stroke="#fff" stroke-linecap="round" stroke-linejoin="round"
                d="M5.5 9.5a4 4 0 1 0 0-8 4 4 0 0 0 0 8ZM10.5 10.5 8.32 8.33" />
        </symbol>
        <symbol id="heart" viewBox="0 0 14 13">
            <path fill="#FF6B08"
                d="m7 12.88-.98-.98C2.38 8.68 0 6.51 0 3.85A3.8 3.8 0 0 1 3.85 0 4.2 4.2 0 0 1 7 1.47 4.2 4.2 0 0 1 10.15 0 3.8 3.8 0 0 1 14 3.85c0 2.66-2.38 4.83-6.02 8.05l-.98.98Z" />
        </symbol>
        <symbol id="close" viewBox="0 0 32 32">
            <path stroke-width="2.133" d="m8.533 8.533 14.933 14.933M8.533 23.467 23.466 8.534" />
        </symbol>
    </defs>
</svg>